<svg width="565" height="565" viewBox="0 0 565 565" fill="none" xmlns="http://www.w3.org/2000/svg">
<mask id="mask0_1108_83" style="mask-type:luminance" maskUnits="userSpaceOnUse" x="11" y="2" width="412" height="493">
<path d="M11 2H422.432V494.407H11V2Z" fill="white"/>
</mask>
<g mask="url(#mask0_1108_83)">
<mask id="mask1_1108_83" style="mask-type:luminance" maskUnits="userSpaceOnUse" x="12" y="3" width="411" height="490">
<path d="M422.184 3.69385L381.492 74.2838L366.229 100.743C364.271 100.633 362.283 100.601 360.325 100.601H99.0173V190.87H314.267L208.26 374.71H182.642V235.206H99.0173V464.931H156.267L140.135 492.908H12.1094V3.69385H422.184Z" fill="white"/>
</mask>
<g mask="url(#mask1_1108_83)">
<mask id="mask2_1108_83" style="mask-type:luminance" maskUnits="userSpaceOnUse" x="11" y="0" width="413" height="495">
<path d="M423.158 0.754395H11V494.41H423.158V0.754395Z" fill="white"/>
</mask>
<g mask="url(#mask2_1108_83)">
<mask id="mask3_1108_83" style="mask-type:luminance" maskUnits="userSpaceOnUse" x="11" y="3" width="412" height="491">
<path d="M11.5039 3.07666H422.431V493.081H11.5039V3.07666Z" fill="white"/>
</mask>
<g mask="url(#mask3_1108_83)">
<mask id="mask4_1108_83" style="mask-type:luminance" maskUnits="userSpaceOnUse" x="12" y="3" width="411" height="490">
<path d="M422.178 3.69434L381.486 74.2843L366.223 100.744C364.265 100.633 362.277 100.601 360.319 100.601H99.0115V190.87H314.261L208.254 374.711H182.636V235.206H99.0115V464.932H156.261L140.129 492.909H12.1035V3.69434H422.178Z" fill="white"/>
</mask>
<g mask="url(#mask4_1108_83)">
<path d="M2797.04 -142.243H-515.252V714.29H2797.04V-142.243Z" fill="white"/>
</g>
</g>
</g>
</g>
</g>
<mask id="mask5_1108_83" style="mask-type:luminance" maskUnits="userSpaceOnUse" x="141" y="73" width="412" height="491">
<path d="M141.824 73.5845H552.467V564H141.824V73.5845Z" fill="white"/>
</mask>
<g mask="url(#mask5_1108_83)">
<mask id="mask6_1108_83" style="mask-type:luminance" maskUnits="userSpaceOnUse" x="142" y="74" width="411" height="490">
<path d="M552.149 74.2798V563.494H142.248L182.971 492.904L199.071 464.927H360.323C425.559 464.927 478.468 411.961 478.468 346.619V218.905C478.468 169.101 447.768 126.519 404.266 109.037L424.312 74.2798H552.149Z" fill="white"/>
</mask>
<g mask="url(#mask6_1108_83)">
<mask id="mask7_1108_83" style="mask-type:luminance" maskUnits="userSpaceOnUse" x="140" y="73" width="413" height="495">
<path d="M552.463 73.5854H140.305V567.241H552.463V73.5854Z" fill="white"/>
</mask>
<g mask="url(#mask7_1108_83)">
<mask id="mask8_1108_83" style="mask-type:luminance" maskUnits="userSpaceOnUse" x="141" y="73" width="412" height="491">
<path d="M141.82 73.5854H552.463V563.495H141.82V73.5854Z" fill="white"/>
</mask>
<g mask="url(#mask8_1108_83)">
<mask id="mask9_1108_83" style="mask-type:luminance" maskUnits="userSpaceOnUse" x="142" y="74" width="411" height="490">
<path d="M552.149 74.2808V563.495H142.248L182.971 492.905L199.071 464.928H360.323C425.559 464.928 478.468 411.962 478.468 346.62V218.906C478.468 169.101 447.768 126.52 404.266 109.038L424.312 74.2808H552.149Z" fill="white"/>
</mask>
<g mask="url(#mask9_1108_83)">
<path d="M2797.04 -142.247H-515.25V714.286H2797.04V-142.247Z" fill="white"/>
</g>
</g>
</g>
</g>
</g>
<mask id="mask10_1108_83" style="mask-type:luminance" maskUnits="userSpaceOnUse" x="250" y="189" width="141" height="188">
<path d="M250.953 189.333H390.833V376.666H250.953V189.333Z" fill="white"/>
</mask>
<g mask="url(#mask10_1108_83)">
<mask id="mask11_1108_83" style="mask-type:luminance" maskUnits="userSpaceOnUse" x="251" y="190" width="140" height="185">
<path d="M390.69 212.172V353.7C390.69 365.302 381.298 374.706 369.712 374.706H251.078L350.961 201.503C354.781 194.912 361.789 190.834 369.413 190.834C381.188 190.834 390.721 200.397 390.721 212.172" fill="white"/>
</mask>
<g mask="url(#mask11_1108_83)">
<mask id="mask12_1108_83" style="mask-type:luminance" maskUnits="userSpaceOnUse" x="249" y="186" width="142" height="192">
<path d="M390.829 186.886H249.402V377.065H390.829V186.886Z" fill="white"/>
</mask>
<g mask="url(#mask12_1108_83)">
<mask id="mask13_1108_83" style="mask-type:luminance" maskUnits="userSpaceOnUse" x="250" y="190" width="141" height="186">
<path d="M250.953 190.206H390.833V375.406H250.953V190.206Z" fill="white"/>
</mask>
<g mask="url(#mask13_1108_83)">
<mask id="mask14_1108_83" style="mask-type:luminance" maskUnits="userSpaceOnUse" x="251" y="190" width="140" height="185">
<path d="M390.686 212.175V353.703C390.686 365.304 381.294 374.709 369.709 374.709H251.074L350.957 201.506C354.777 194.915 361.785 190.837 369.409 190.837C381.184 190.837 390.717 200.4 390.717 212.175" fill="white"/>
</mask>
<g mask="url(#mask14_1108_83)">
<path d="M2797.04 -142.244H-515.252V714.289H2797.04V-142.244Z" fill="white"/>
</g>
</g>
</g>
</g>
</g>
</svg>
