<svg width="2619" height="823" viewBox="0 0 2619 823" fill="none" xmlns="http://www.w3.org/2000/svg">
<mask id="mask0_1103_179" style="mask-type:luminance" maskUnits="userSpaceOnUse" x="0" y="0" width="603" height="721">
<path d="M0 0H602.427V720.993H0V0Z" fill="white"/>
</mask>
<g mask="url(#mask0_1103_179)">
<mask id="mask1_1103_179" style="mask-type:luminance" maskUnits="userSpaceOnUse" x="1" y="2" width="602" height="717">
<path d="M602.053 2.47363L542.471 105.833L520.123 144.575C517.257 144.413 514.345 144.367 511.479 144.367H128.866V276.54H444.039L288.821 545.724H251.311V341.458H128.866V677.828H212.692L189.072 718.792H1.61328V2.47363H602.053Z" fill="white"/>
</mask>
<g mask="url(#mask1_1103_179)">
<mask id="mask2_1103_179" style="mask-type:luminance" maskUnits="userSpaceOnUse" x="0" y="-2" width="604" height="723">
<path d="M603.491 -1.83496H0V720.987H603.491V-1.83496Z" fill="white"/>
</mask>
<g mask="url(#mask2_1103_179)">
<mask id="mask3_1103_179" style="mask-type:luminance" maskUnits="userSpaceOnUse" x="0" y="1" width="603" height="719">
<path d="M0.742188 1.56738H602.43V719.043H0.742188V1.56738Z" fill="white"/>
</mask>
<g mask="url(#mask3_1103_179)">
<mask id="mask4_1103_179" style="mask-type:luminance" maskUnits="userSpaceOnUse" x="1" y="2" width="602" height="717">
<path d="M602.069 2.46973L542.487 105.829L520.138 144.572C517.272 144.41 514.36 144.363 511.494 144.363H128.881V276.536H444.055L288.837 545.72H251.327V341.454H128.881V677.824H212.707L189.087 718.788H1.62891V2.46973H602.069Z" fill="white"/>
</mask>
<g mask="url(#mask4_1103_179)">
<path d="M4079.41 -211.21H-770.527V1042.94H4079.41V-211.21Z" fill="white"/>
</g>
</g>
</g>
</g>
</g>
<mask id="mask5_1103_179" style="mask-type:luminance" maskUnits="userSpaceOnUse" x="191" y="104" width="602" height="719">
<path d="M191.555 104.809H792.827V822.886H191.555V104.809Z" fill="white"/>
</mask>
<g mask="url(#mask5_1103_179)">
<mask id="mask6_1103_179" style="mask-type:luminance" maskUnits="userSpaceOnUse" x="192" y="105" width="601" height="718">
<path d="M792.369 105.822V822.14H192.184L251.812 718.781L275.385 677.817H511.494C607.014 677.817 684.484 600.263 684.484 504.587V317.586C684.484 244.661 639.532 182.312 575.837 156.715L605.188 105.822H792.369Z" fill="white"/>
</mask>
<g mask="url(#mask6_1103_179)">
<mask id="mask7_1103_179" style="mask-type:luminance" maskUnits="userSpaceOnUse" x="189" y="104" width="604" height="724">
<path d="M792.834 104.802H189.344V827.623H792.834V104.802Z" fill="white"/>
</mask>
<g mask="url(#mask7_1103_179)">
<mask id="mask8_1103_179" style="mask-type:luminance" maskUnits="userSpaceOnUse" x="191" y="104" width="602" height="719">
<path d="M191.555 104.802H792.827V822.138H191.555V104.802Z" fill="white"/>
</mask>
<g mask="url(#mask8_1103_179)">
<mask id="mask9_1103_179" style="mask-type:luminance" maskUnits="userSpaceOnUse" x="192" y="105" width="601" height="718">
<path d="M792.369 105.822V822.14H192.184L251.812 718.781L275.385 677.817H511.494C607.014 677.817 684.484 600.263 684.484 504.587V317.586C684.484 244.661 639.532 182.312 575.837 156.715L605.188 105.822H792.369Z" fill="white"/>
</mask>
<g mask="url(#mask9_1103_179)">
<path d="M4079.41 -211.225H-770.527V1042.93H4079.41V-211.225Z" fill="white"/>
</g>
</g>
</g>
</g>
</g>
<mask id="mask10_1103_179" style="mask-type:luminance" maskUnits="userSpaceOnUse" x="351" y="274" width="206" height="275">
<path d="M351.34 274.299H556.155V548.597H351.34V274.299Z" fill="white"/>
</mask>
<g mask="url(#mask10_1103_179)">
<mask id="mask11_1103_179" style="mask-type:luminance" maskUnits="userSpaceOnUse" x="351" y="276" width="205" height="270">
<path d="M555.946 307.741V514.969C555.946 531.956 542.194 545.727 525.23 545.727H351.523L497.774 292.119C503.367 282.468 513.628 276.497 524.791 276.497C542.033 276.497 555.992 290.499 555.992 307.741" fill="white"/>
</mask>
<g mask="url(#mask11_1103_179)">
<mask id="mask12_1103_179" style="mask-type:luminance" maskUnits="userSpaceOnUse" x="349" y="270" width="208" height="280">
<path d="M556.162 270.711H349.082V549.175H556.162V270.711Z" fill="white"/>
</mask>
<g mask="url(#mask12_1103_179)">
<mask id="mask13_1103_179" style="mask-type:luminance" maskUnits="userSpaceOnUse" x="351" y="275" width="206" height="272">
<path d="M351.355 275.569H556.171V546.743H351.355V275.569Z" fill="white"/>
</mask>
<g mask="url(#mask13_1103_179)">
<mask id="mask14_1103_179" style="mask-type:luminance" maskUnits="userSpaceOnUse" x="351" y="276" width="206" height="270">
<path d="M555.961 307.745V514.973C555.961 531.96 542.21 545.731 525.246 545.731H351.539L497.789 292.123C503.382 282.472 513.644 276.501 524.807 276.501C542.048 276.501 556.008 290.503 556.008 307.745" fill="white"/>
</mask>
<g mask="url(#mask14_1103_179)">
<path d="M4079.41 -211.203H-770.527V1042.95H4079.41V-211.203Z" fill="white"/>
</g>
</g>
</g>
</g>
</g>
<mask id="mask15_1103_179" style="mask-type:luminance" maskUnits="userSpaceOnUse" x="1001" y="147" width="344" height="539">
<path d="M1001.75 147.854H1344.97V685.452H1001.75V147.854Z" fill="white"/>
</mask>
<g mask="url(#mask15_1103_179)">
<mask id="mask16_1103_179" style="mask-type:luminance" maskUnits="userSpaceOnUse" x="1001" y="147" width="343" height="539">
<path d="M1145.52 606.229C1234.92 606.229 1240.66 558.959 1240.66 403.534C1240.66 276.79 1227.8 226.626 1167.69 226.626H1101.89V606.229H1145.52ZM1001.75 685.006V147.85H1210.61C1234.92 147.85 1283.58 158.59 1314.32 208.702C1337.2 245.946 1343.64 305.42 1343.64 394.223C1343.64 500.251 1343.64 622.723 1261.4 670.69C1239.24 683.576 1212.07 685.006 1187.02 685.006H1001.75Z" fill="white"/>
</mask>
<g mask="url(#mask16_1103_179)">
<mask id="mask17_1103_179" style="mask-type:luminance" maskUnits="userSpaceOnUse" x="998" y="145" width="349" height="541">
<path d="M1346.64 145.394H998.512V685.733H1346.64V145.394Z" fill="white"/>
</mask>
<g mask="url(#mask17_1103_179)">
<mask id="mask18_1103_179" style="mask-type:luminance" maskUnits="userSpaceOnUse" x="1001" y="147" width="344" height="539">
<path d="M1001.75 147.843H1344.2V685.22H1001.75V147.843Z" fill="white"/>
</mask>
<g mask="url(#mask18_1103_179)">
<mask id="mask19_1103_179" style="mask-type:luminance" maskUnits="userSpaceOnUse" x="1001" y="147" width="343" height="538">
<path d="M1145.52 606.218C1234.92 606.218 1240.66 558.949 1240.66 403.523C1240.66 276.779 1227.8 226.616 1167.69 226.616H1101.89V606.218H1145.52ZM1001.75 684.995V147.839H1210.61C1234.92 147.839 1283.58 158.58 1314.32 208.692C1337.2 245.935 1343.64 305.409 1343.64 394.212C1343.64 500.241 1343.64 622.712 1261.4 670.68C1239.24 683.565 1212.07 684.995 1187.02 684.995H1001.75Z" fill="white"/>
</mask>
<g mask="url(#mask19_1103_179)">
<path d="M1001.75 147.839H1343.64V685.437H1001.75V147.839Z" fill="white"/>
</g>
</g>
</g>
</g>
</g>
<mask id="mask20_1103_179" style="mask-type:luminance" maskUnits="userSpaceOnUse" x="1402" y="147" width="101" height="539">
<path d="M1402.29 147.854H1502.42V685.009H1402.29V147.854Z" fill="white"/>
</mask>
<g mask="url(#mask20_1103_179)">
<mask id="mask21_1103_179" style="mask-type:luminance" maskUnits="userSpaceOnUse" x="1398" y="145" width="106" height="541">
<path d="M1503.29 145.397H1398.86V685.737H1503.29V145.397Z" fill="white"/>
</mask>
<g mask="url(#mask21_1103_179)">
<mask id="mask22_1103_179" style="mask-type:luminance" maskUnits="userSpaceOnUse" x="1402" y="147" width="101" height="539">
<path d="M1402.29 147.85H1502.42V685.006H1402.29V147.85Z" fill="white"/>
</mask>
<g mask="url(#mask22_1103_179)">
<path d="M1402.29 147.85H1502.42V684.852H1402.29V147.85Z" fill="white"/>
</g>
</g>
</g>
<mask id="mask23_1103_179" style="mask-type:luminance" maskUnits="userSpaceOnUse" x="1565" y="147" width="343" height="539">
<path d="M1565.41 147.203H1907.62V685.687H1565.41V147.203Z" fill="white"/>
</mask>
<g mask="url(#mask23_1103_179)">
<mask id="mask24_1103_179" style="mask-type:luminance" maskUnits="userSpaceOnUse" x="1566" y="147" width="340" height="539">
<path d="M1805.7 147.867H1905.82V685.023H1801.38L1723.43 493.801C1696.96 430.054 1675.51 364.861 1651.92 280.365H1650.49C1654.06 324.774 1658.36 379.21 1661.22 433.646C1664.07 487.366 1666.21 541.104 1666.21 584.05V685.023H1566.08V147.867H1669.77L1747.74 343.379C1773.47 405.696 1794.93 469.425 1819.25 556.815H1820.68C1817.11 508.116 1813.5 455.825 1810.65 404.249C1807.81 352.656 1805.67 301.114 1805.67 253.096L1805.7 147.867Z" fill="white"/>
</mask>
<g mask="url(#mask24_1103_179)">
<mask id="mask25_1103_179" style="mask-type:luminance" maskUnits="userSpaceOnUse" x="1564" y="145" width="344" height="541">
<path d="M1907.98 145.411H1564.21V685.75H1907.98V145.411Z" fill="white"/>
</mask>
<g mask="url(#mask25_1103_179)">
<mask id="mask26_1103_179" style="mask-type:luminance" maskUnits="userSpaceOnUse" x="1565" y="147" width="342" height="539">
<path d="M1565.41 147.207H1906.41V685.248H1565.41V147.207Z" fill="white"/>
</mask>
<g mask="url(#mask26_1103_179)">
<mask id="mask27_1103_179" style="mask-type:luminance" maskUnits="userSpaceOnUse" x="1566" y="147" width="340" height="539">
<path d="M1805.69 147.871H1905.81V685.027H1801.37L1723.42 493.805C1696.95 430.058 1675.5 364.865 1651.91 280.369H1650.48C1654.05 324.778 1658.35 379.214 1661.21 433.65C1664.06 487.37 1666.2 541.108 1666.2 584.054V685.027H1566.07V147.871H1669.76L1747.73 343.383C1773.46 405.7 1794.91 469.429 1819.24 556.819H1820.67C1817.1 508.12 1813.49 455.829 1810.64 404.253C1807.8 352.66 1805.66 301.118 1805.66 253.1L1805.69 147.871Z" fill="white"/>
</mask>
<g mask="url(#mask27_1103_179)">
<path d="M3189.42 -69.5859H-377.625V852.825H3189.42V-69.5859Z" fill="white"/>
</g>
</g>
</g>
</g>
</g>
<mask id="mask28_1103_179" style="mask-type:luminance" maskUnits="userSpaceOnUse" x="1925" y="147" width="388" height="539">
<path d="M1925.39 147.203H2312.03V685.687H1925.39V147.203Z" fill="white"/>
</mask>
<g mask="url(#mask28_1103_179)">
<mask id="mask29_1103_179" style="mask-type:luminance" maskUnits="userSpaceOnUse" x="1926" y="147" width="386" height="539">
<path d="M2076.04 470.174H2161.88L2134.68 317.608C2129.68 292.535 2127.52 268.194 2124.67 243.104C2123.95 230.933 2122.53 218.763 2121.1 207.307H2119.67C2118.24 218.763 2116.81 230.933 2116.1 243.104C2113.24 268.16 2111.12 292.518 2106.09 317.608L2076.04 470.174ZM1926.57 685.023L2054.58 147.867H2189.75L2311.34 685.023H2204.05L2177.6 548.951H2060.31L2033.86 685.023H1926.57Z" fill="white"/>
</mask>
<g mask="url(#mask29_1103_179)">
<mask id="mask30_1103_179" style="mask-type:luminance" maskUnits="userSpaceOnUse" x="1925" y="145" width="388" height="541">
<path d="M2312.67 145.411H1925.39V685.75H2312.67V145.411Z" fill="white"/>
</mask>
<g mask="url(#mask30_1103_179)">
<mask id="mask31_1103_179" style="mask-type:luminance" maskUnits="userSpaceOnUse" x="1926" y="147" width="387" height="539">
<path d="M1926.13 147.207H2312.01V685.248H1926.13V147.207Z" fill="white"/>
</mask>
<g mask="url(#mask31_1103_179)">
<mask id="mask32_1103_179" style="mask-type:luminance" maskUnits="userSpaceOnUse" x="1926" y="147" width="386" height="539">
<path d="M2076.04 470.178H2161.88L2134.68 317.612C2129.68 292.539 2127.52 268.198 2124.67 243.108C2123.95 230.937 2122.53 218.767 2121.1 207.311H2119.67C2118.24 218.767 2116.81 230.937 2116.1 243.108C2113.24 268.164 2111.12 292.522 2106.09 317.612L2076.04 470.178ZM1926.57 685.027L2054.58 147.871H2189.75L2311.34 685.027H2204.05L2177.6 548.955H2060.31L2033.86 685.027H1926.57Z" fill="white"/>
</mask>
<g mask="url(#mask32_1103_179)">
<path d="M3189.44 -69.5859H-377.609V852.825H3189.44V-69.5859Z" fill="white"/>
</g>
</g>
</g>
</g>
</g>
<mask id="mask33_1103_179" style="mask-type:luminance" maskUnits="userSpaceOnUse" x="2332" y="147" width="287" height="539">
<path d="M2332.1 147.854H2432.23V606.233H2332.1V147.854ZM2332.1 606.233H2618.19V685.009H2332.1V606.233Z" fill="white"/>
</mask>
<g mask="url(#mask33_1103_179)">
<mask id="mask34_1103_179" style="mask-type:luminance" maskUnits="userSpaceOnUse" x="2330" y="145" width="292" height="541">
<path d="M2621.64 145.397H2330.09V685.737H2621.64V145.397Z" fill="white"/>
</mask>
<g mask="url(#mask34_1103_179)">
<mask id="mask35_1103_179" style="mask-type:luminance" maskUnits="userSpaceOnUse" x="2332" y="147" width="287" height="539">
<path d="M2332.11 147.846H2432.25V606.225H2332.11V147.846ZM2332.11 606.225H2618.21V685.002H2332.11V606.225Z" fill="white"/>
</mask>
<g mask="url(#mask35_1103_179)">
<path d="M3189.45 -69.6074H-377.602V852.803H3189.45V-69.6074Z" fill="white"/>
</g>
</g>
</g>
</svg>
